<svg xmlns="http://www.w3.org/2000/svg" viewBox="0 0 512 512">
  <defs>
    <linearGradient id="bg" x1="0%" y1="0%" x2="100%" y2="100%">
      <stop offset="0%" style="stop-color:#e8835a"/>
      <stop offset="100%" style="stop-color:#f59e0b"/>
    </linearGradient>
  </defs>
  <rect width="512" height="512" rx="120" fill="#09090b"/>
  <rect x="40" y="40" width="432" height="432" rx="96" fill="url(#bg)" opacity="0.12"/>
  <g transform="translate(256,256)">
    <!-- Brain / AI icon -->
    <path d="M-40,-70 Q-20,-90 0,-75 Q20,-90 40,-70 Q55,-45 40,-25 Q55,-5 40,15 Q25,35 10,25 L0,60 L-10,25 Q-25,35 -40,15 Q-55,-5 -40,-25 Q-55,-45 -40,-70Z" fill="#e8835a" opacity="0.95"/>
    <path d="M-25,-45 L25,-45 L20,-15 L-20,-15Z" fill="#09090b" opacity="0.9"/>
    <path d="M-15,10 L15,10 L10,30 L-10,30Z" fill="#09090b" opacity="0.9"/>
    <!-- Small sparkle dots -->
    <circle cx="45" cy="-55" r="4" fill="#f59e0b"/>
    <circle cx="-50" cy="-40" r="3" fill="#f59e0b"/>
    <circle cx="50" cy="30" r="3" fill="#f59e0b"/>
  </g>
</svg>
